<svg width="78" height="100" viewBox="0 0 78 100" fill="none" xmlns="http://www.w3.org/2000/svg">
<path fill-rule="evenodd" clip-rule="evenodd" d="M33.3188 49.1523C40.0068 42.7802 37.966 34.8991 31.9088 25.3492C25.8515 15.7993 13.6583 12.4017 11.3836 14.569C9.10885 16.7363 8.60466 32.2314 14.6619 41.7813C20.7191 51.3312 26.6307 55.5244 33.3188 49.1523Z" fill="url(#paint0_linear_790_3026)"/>
<path fill-rule="evenodd" clip-rule="evenodd" d="M39.1016 50.0343C44.0495 57.8351 50.6642 54.9828 58.8519 47.182C67.0395 39.3811 70.4345 24.4381 68.7517 21.7849C67.0688 19.1316 54.2803 19.2647 46.0926 27.0655C37.905 34.8664 34.1538 42.2334 39.1016 50.0343Z" fill="url(#paint1_linear_790_3026)"/>
<path fill-rule="evenodd" clip-rule="evenodd" d="M36.3963 45.7426C44.6121 46.7514 47.843 39.1613 49.3494 26.8925C50.8558 14.6236 44.6459 1.65625 41.8516 1.31315C39.0573 0.970057 29.6696 12.0223 28.1631 24.2911C26.6567 36.56 28.1806 44.7339 36.3963 45.7426Z" fill="url(#paint2_linear_790_3026)"/>
<path fill-rule="evenodd" clip-rule="evenodd" d="M34.3274 99.9986C51.5526 99.9986 65.522 94.9949 65.522 72.3025C65.522 49.6101 51.5526 30.9888 34.3274 30.9888C17.1021 30.9888 3.14374 49.6101 3.14374 72.3025C3.14374 94.9949 17.1021 99.9986 34.3274 99.9986Z" fill="url(#paint3_linear_790_3026)"/>
<path d="M50.0828 67.6697C52.5436 67.6697 54.5384 66.7419 54.5384 65.5974C54.5384 64.4528 52.5436 63.525 50.0828 63.525C47.6221 63.525 45.6273 64.4528 45.6273 65.5974C45.6273 66.7419 47.6221 67.6697 50.0828 67.6697Z" fill="#EAADCC"/>
<path d="M17.0869 66.411C19.5293 66.7109 21.6223 66.0331 21.7618 64.8971C21.9013 63.7611 20.0344 62.5971 17.592 62.2972C15.1496 61.9973 13.0565 62.6751 12.9171 63.8111C12.7776 64.9471 14.6445 66.1111 17.0869 66.411Z" fill="#EAADCC"/>
<path d="M37.1818 64.8636C35.8408 65.9535 34.2919 66.398 32.5351 66.1973C30.7783 65.9965 29.4762 65.2674 28.6286 64.0097" stroke="black" stroke-width="1.24342" stroke-linecap="round" stroke-linejoin="round"/>
<path fill-rule="evenodd" clip-rule="evenodd" d="M19.9262 54.0788C21.156 54.0359 22.2866 54.4954 23.1206 55.273C23.9546 56.0506 24.4919 57.1464 24.5348 58.3761C24.5778 59.6058 24.1182 60.7365 23.3406 61.5704C22.5628 62.4044 21.467 62.9416 20.2372 62.9846C19.0076 63.0275 17.877 62.568 17.0431 61.7903C16.2092 61.0126 15.672 59.9168 15.6291 58.6871C15.5861 57.4574 16.0456 56.3268 16.8232 55.4929C17.6009 54.659 18.6966 54.1218 19.9262 54.0788Z" fill="black"/>
<path fill-rule="evenodd" clip-rule="evenodd" d="M20.1602 57.8033C20.1323 57.0027 19.4603 56.3762 18.66 56.4041C17.8592 56.4321 17.2327 57.1039 17.2607 57.9045C17.2887 58.7051 17.9604 59.3316 18.7612 59.3037C19.5615 59.2755 20.1882 58.6039 20.1602 57.8033Z" fill="white"/>
<path fill-rule="evenodd" clip-rule="evenodd" d="M46.9232 55.2097C48.1529 55.1668 49.2835 55.6262 50.1174 56.4039C50.9513 57.1815 51.4886 58.2773 51.5315 59.507C51.5745 60.7367 51.115 61.8674 50.3374 62.7013C49.5597 63.5353 48.4639 64.0725 47.2342 64.1154C46.0045 64.1584 44.8739 63.6989 44.0399 62.9212C43.206 62.1435 42.6687 61.0477 42.6258 59.818C42.5828 58.5883 43.0424 57.4577 43.82 56.6238C44.5977 55.7899 45.6935 55.2526 46.9232 55.2097Z" fill="black"/>
<path d="M23.9135 58.3978C23.9874 60.5142 22.3318 62.2894 20.2155 62.3633C18.0994 62.4372 16.3243 60.7818 16.2504 58.6654C16.1765 56.5493 17.8318 54.7741 19.9479 54.7002C22.0642 54.6263 23.8396 56.2817 23.9135 58.3978ZM25.1561 58.3544C25.0583 55.552 22.7071 53.3597 19.9045 53.4575C17.1021 53.5554 14.9099 55.9064 15.0077 58.7088C15.1056 61.5114 17.4565 63.7038 20.2589 63.606C23.0615 63.5081 25.254 61.1571 25.1561 58.3544Z" fill="white" stroke="white" stroke-width="0.62171"/>
<path d="M50.9102 59.5287C50.9841 61.6451 49.3288 63.4203 47.2125 63.4942C45.0964 63.5681 43.3211 61.9127 43.2471 59.7963C43.1733 57.6802 44.8288 55.905 46.9449 55.8311C49.0612 55.7572 50.8363 57.4126 50.9102 59.5287ZM52.1529 59.4853C52.055 56.6829 49.7041 54.4906 46.9015 54.5885C44.0991 54.6863 41.9066 57.0373 42.0045 59.8397C42.1024 62.6423 44.4534 64.8347 47.2559 64.7369C50.0585 64.639 52.2508 62.288 52.1529 59.4853Z" fill="white" stroke="white" stroke-width="0.62171"/>
<path fill-rule="evenodd" clip-rule="evenodd" d="M47.1568 58.9341C47.1289 58.1336 46.457 57.507 45.6564 57.535C44.8558 57.563 44.2293 58.2348 44.2573 59.0354C44.2852 59.836 44.9571 60.4625 45.7577 60.4345C46.5583 60.4066 47.1848 59.7347 47.1568 58.9341Z" fill="white"/>
<path d="M10.7079 74.4049L26.0434 90.3621" stroke="#ECB732" stroke-width="2.2796" stroke-linecap="round"/>
<path d="M23.971 76.2701L14.2309 86.6319" stroke="#ECB732" stroke-width="2.2796" stroke-linecap="round"/>
<path d="M57.7506 74.4049L42.4151 90.3621" stroke="#ECB732" stroke-width="2.2796" stroke-linecap="round"/>
<path d="M44.4874 76.2701L54.2275 86.6319" stroke="#ECB732" stroke-width="2.2796" stroke-linecap="round"/>
<path d="M40.5499 39.1747L30.3953 49.3293" stroke="#FFC73B" stroke-width="2.2796" stroke-linecap="round"/>
<path d="M38.4776 49.3293L28.323 39.1747" stroke="#FFC73B" stroke-width="2.2796" stroke-linecap="round"/>
<defs>
<linearGradient id="paint0_linear_790_3026" x1="3351.04" y1="-2594.66" x2="6120.73" y2="5154.58" gradientUnits="userSpaceOnUse">
<stop stop-color="#52CE63"/>
<stop offset="1" stop-color="#51A256"/>
</linearGradient>
<linearGradient id="paint1_linear_790_3026" x1="2682.69" y1="3367.46" x2="-5067.25" y2="6135.79" gradientUnits="userSpaceOnUse">
<stop stop-color="#52CE63"/>
<stop offset="1" stop-color="#51A256"/>
</linearGradient>
<linearGradient id="paint2_linear_790_3026" x1="3410.36" y1="414.914" x2="1880" y2="12878.7" gradientUnits="userSpaceOnUse">
<stop stop-color="#8AE99C"/>
<stop offset="1" stop-color="#52CE63"/>
</linearGradient>
<linearGradient id="paint3_linear_790_3026" x1="10226.6" y1="5782.55" x2="8573.34" y2="32930.3" gradientUnits="userSpaceOnUse">
<stop stop-color="#FFE56C"/>
<stop offset="1" stop-color="#FFC63A"/>
</linearGradient>
</defs>
</svg>
